<svg xmlns="http://www.w3.org/2000/svg" viewBox="0 0 485.85 153.52"><defs><style>.cls-1{fill:#231f20;}</style></defs><g id="Layer_2" data-name="Layer 2"><g id="svg8"><g id="layer1"><rect id="rect100" class="cls-1" x="226.84" y="6.55" width="152.02" height="3.01"/></g><g id="layer4"><path id="text14" d="M220.35,0a7.78,7.78,0,0,0-5.42,2.29,7,7,0,0,0-2.46,5.58,7.53,7.53,0,0,0,2.46,5.74,7.94,7.94,0,0,0,10.82,0,7.54,7.54,0,0,0,2.47-5.74,7,7,0,0,0-2.47-5.58A7.74,7.74,0,0,0,220.35,0ZM386,0a7.74,7.74,0,0,0-5.4,2.29,7,7,0,0,0-2.47,5.58,7.54,7.54,0,0,0,2.47,5.74,7.94,7.94,0,0,0,10.82,0,7.53,7.53,0,0,0,2.46-5.74,7,7,0,0,0-2.46-5.58A7.78,7.78,0,0,0,386,0ZM330.14,15.74V37.4H314.22v9.34h15.92v47.9a25.06,25.06,0,0,0,1.8,10.33,17.74,17.74,0,0,0,4.92,6.24,16.67,16.67,0,0,0,6.39,3.11,28.75,28.75,0,0,0,6.56.81,34.17,34.17,0,0,0,6.9-.64,28.74,28.74,0,0,0,6.22-1.65l-.48-9.67a23.8,23.8,0,0,1-4.92,1.8,18.34,18.34,0,0,1-4.76.65,20.26,20.26,0,0,1-4.59-.49,9.87,9.87,0,0,1-3.77-2.13,11.23,11.23,0,0,1-2.3-4.43,25.69,25.69,0,0,1-.83-7V46.74h21.65V37.4H341.28V15.74ZM191.25,35.43a26.5,26.5,0,0,0-14.76,4.26,26,26,0,0,0-9.84,10.83h-.33c0-1.64-.06-3.72-.16-6.24s-.28-4.81-.5-6.88H155q.33,3.93.49,8.85t.16,8v59.86h11.16V74.79a41.65,41.65,0,0,1,1.8-13.13,28.15,28.15,0,0,1,4.91-9,18.76,18.76,0,0,1,7.22-5.24,22.83,22.83,0,0,1,8.53-1.64,32.33,32.33,0,0,1,4.6.32,20.73,20.73,0,0,1,3.28.66l1.47-10.5a21.77,21.77,0,0,0-3.61-.66c-1.09-.11-2.35-.15-3.77-.15Zm86.83,0a39.07,39.07,0,0,0-10.17,1.31,27.32,27.32,0,0,0-8.86,4.09,19.58,19.58,0,0,0-6.06,6.9,20.21,20.21,0,0,0-2.3,10,17.53,17.53,0,0,0,2.13,9,20.59,20.59,0,0,0,5.42,6.06,28.31,28.31,0,0,0,7.05,3.61q3.93,1.14,7.37,2,11,2.63,16.74,5.74,5.91,3,5.9,9a11.52,11.52,0,0,1-5.41,10.5,15.73,15.73,0,0,1-5.74,2.3,35.62,35.62,0,0,1-6.88.65,25,25,0,0,1-21.33-12l-8.86,6.56a31.31,31.31,0,0,0,13.45,11.32,41.41,41.41,0,0,0,27.22,2.29,26.43,26.43,0,0,0,9.36-3.94,21.73,21.73,0,0,0,9.18-18.52q0-9-6.56-14.28-6.39-5.4-20-8.2-9.53-2-13.94-4.76a9.47,9.47,0,0,1-4.43-8.36,10.69,10.69,0,0,1,1.31-5.42,12.33,12.33,0,0,1,3.77-3.77,16.18,16.18,0,0,1,5.25-2.13,27.66,27.66,0,0,1,5.91-.66,20.78,20.78,0,0,1,11.32,3.11,19,19,0,0,1,7.54,7.72L305,49.21A25.1,25.1,0,0,0,293.66,39,35.78,35.78,0,0,0,278.08,35.43Zm178.58,0a43.82,43.82,0,0,0-16.89,3.11,37.24,37.24,0,0,0-13,8.37,39,39,0,0,0-8.2,12.8,43,43,0,0,0-2.95,16.07,43,43,0,0,0,2.95,16.07,39,39,0,0,0,8.2,12.8,39.25,39.25,0,0,0,13,8.53,46.19,46.19,0,0,0,16.89,2.94q10,0,17.06-3.6a36.34,36.34,0,0,0,12.13-9.69l-8.36-6.22a24.48,24.48,0,0,1-20.83,10,30.75,30.75,0,0,1-12.13-2.3,28,28,0,0,1-9.19-6.56,31.69,31.69,0,0,1-5.9-9.84,38.39,38.39,0,0,1,0-24.28,29.39,29.39,0,0,1,5.9-9.83,26.64,26.64,0,0,1,9.34-6.56,29.05,29.05,0,0,1,12.15-2.47,23,23,0,0,1,11.47,3A20.52,20.52,0,0,1,476.51,55l8.69-6.24a30,30,0,0,0-13-9.84A38.74,38.74,0,0,0,456.66,35.43Zm-437.14,2v90.2a39.76,39.76,0,0,1-.49,6.56,14.07,14.07,0,0,1-1.48,5.25,7.8,7.8,0,0,1-3.28,3.28A10.5,10.5,0,0,1,8.69,144a21.81,21.81,0,0,1-3.61-.32A17.55,17.55,0,0,1,1.63,143L0,152.38a20.55,20.55,0,0,0,4.59.81,32.66,32.66,0,0,0,4.26.33,23.13,23.13,0,0,0,10.67-2.13A16.58,16.58,0,0,0,26.24,146a19.72,19.72,0,0,0,3.44-7.71,39,39,0,0,0,1-8.85v-92Zm40.34,0V84.47q0,14.27,7.21,23,7.38,8.7,22,8.69a31.6,31.6,0,0,0,15.59-4.1,25.72,25.72,0,0,0,10.65-11h.34q0,2.46.15,6.24t.5,6.88h10.66c-.21-2.62-.38-5.57-.49-8.85s-.17-6-.17-8V37.4H115.14V76.75a41.64,41.64,0,0,1-2,13.46,28.7,28.7,0,0,1-5.25,9.34,21.39,21.39,0,0,1-7.55,5.42,21,21,0,0,1-8.53,1.8,23.27,23.27,0,0,1-10.16-2,17.1,17.1,0,0,1-6.4-5.4A24.53,24.53,0,0,1,72,90.87a56,56,0,0,1-1-11V37.4Zm154.91,0v76.75h11.15V37.4Zm165.62,0v76.75h11.16V37.4Z"/></g></g></g></svg>