<?xml version="1.0" encoding="iso-8859-1"?>
<!-- Generator: Adobe Illustrator 19.0.0, SVG Export Plug-In . SVG Version: 6.00 Build 0)  -->
<svg version="1.1" id="Capa_1" xmlns="http://www.w3.org/2000/svg" xmlns:xlink="http://www.w3.org/1999/xlink" x="0px" y="0px"
	 viewBox="0 0 512 512" style="enable-background:new 0 0 512 512;" xml:space="preserve">
<g>
	<g>
		<g>
			<path d="M414.991,129.948c3.786,1.003,7.757,1.537,11.853,1.537c25.546,0,46.328-20.783,46.328-46.328
				s-20.782-46.328-46.328-46.328c-25.546,0-46.328,20.783-46.328,46.328c0,16.108,8.261,30.321,20.772,38.625l-77.812,148.55
				c-1.73-0.35-3.521-0.534-5.352-0.534c-7.328,0-13.982,2.944-18.84,7.711L189.02,217.485c0.462-1.972,0.706-4.027,0.706-6.137
				c0-14.84-12.074-26.914-26.914-26.914c-14.84,0-26.914,12.074-26.914,26.914c0,7.798,3.334,14.833,8.652,19.753L30.87,458.462
				c-1.291-0.191-2.613-0.29-3.956-0.29C12.074,458.172,0,470.246,0,485.086C0,499.926,12.074,512,26.914,512
				c14.84,0,26.914-12.074,26.914-26.914c0-8.122-3.616-15.415-9.323-20.354L157.96,237.823c1.575,0.288,3.196,0.438,4.853,0.438
				c7.327,0,13.982-2.944,18.84-7.711l110.264,62.024c-0.462,1.971-0.706,4.027-0.706,6.137c0,14.84,12.073,26.914,26.914,26.914
				s26.914-12.074,26.914-26.914c0-7.616-3.179-14.504-8.282-19.405L414.991,129.948z M395.516,85.156
				c0-17.274,14.054-31.328,31.328-31.328c17.274,0,31.328,14.054,31.328,31.328s-14.054,31.328-31.328,31.328
				C409.569,116.484,395.516,102.43,395.516,85.156z M26.914,497C20.345,497,15,491.655,15,485.086
				c0-6.569,5.345-11.914,11.914-11.914s11.914,5.345,11.914,11.914C38.828,491.655,33.483,497,26.914,497z M162.813,223.262
				c-6.569,0-11.914-5.345-11.914-11.914c0-6.569,5.345-11.914,11.914-11.914c6.569,0,11.914,5.345,11.914,11.914
				C174.727,217.917,169.382,223.262,162.813,223.262z M318.125,310.625c-6.569,0-11.914-5.345-11.914-11.914
				c0-6.569,5.345-11.914,11.914-11.914c6.569,0,11.914,5.345,11.914,11.914C330.039,305.28,324.694,310.625,318.125,310.625z"/>
		</g>
	</g>
</g>
<g>
</g>
<g>
</g>
<g>
</g>
<g>
</g>
<g>
</g>
<g>
</g>
<g>
</g>
<g>
</g>
<g>
</g>
<g>
</g>
<g>
</g>
<g>
</g>
<g>
</g>
<g>
</g>
<g>
</g>
</svg>
